<svg xmlns="http://www.w3.org/2000/svg" xmlns:xlink="http://www.w3.org/1999/xlink" width="17.813" height="14.19" viewBox="0 0 17.813 14.19">
  <metadata><?xpacket begin="﻿" id="W5M0MpCehiHzreSzNTczkc9d"?>
<x:xmpmeta xmlns:x="adobe:ns:meta/" x:xmptk="Adobe XMP Core 5.6-c142 79.160924, 2017/07/13-01:06:39        ">
   <rdf:RDF xmlns:rdf="http://www.w3.org/1999/02/22-rdf-syntax-ns#">
      <rdf:Description rdf:about=""/>
   </rdf:RDF>
</x:xmpmeta>
                                                                                                    
                                                                                                    
                                                                                                    
                                                                                                    
                                                                                                    
                                                                                                    
                                                                                                    
                                                                                                    
                                                                                                    
                                                                                                    
                                                                                                    
                                                                                                    
                                                                                                    
                                                                                                    
                                                                                                    
                                                                                                    
                                                                                                    
                                                                                                    
                                                                                                    
                                                                                                    
                           
<?xpacket end="w"?></metadata>
<defs>
    <style>
      .cls-1 {
        fill-rule: evenodd;
        filter: url(#filter);
      }
    </style>
    <filter id="filter" x="568.531" y="1630.81" width="17.813" height="14.19" filterUnits="userSpaceOnUse">
      <feFlood result="flood" flood-color="#d22856"/>
      <feComposite result="composite" operator="in" in2="SourceGraphic"/>
      <feBlend result="blend" in2="SourceGraphic"/>
    </filter>
  </defs>
  <path id="twitter_copy" data-name="twitter copy" class="cls-1" d="M586.353,1632.48a7.367,7.367,0,0,1-2.1.57,3.636,3.636,0,0,0,1.606-1.99,7.4,7.4,0,0,1-2.32.87,3.706,3.706,0,0,0-2.667-1.13,3.625,3.625,0,0,0-3.654,3.59,3.481,3.481,0,0,0,.1.81,10.431,10.431,0,0,1-7.53-3.74,3.5,3.5,0,0,0-.5,1.8,3.561,3.561,0,0,0,1.625,2.98,3.686,3.686,0,0,1-1.655-.44v0.04a3.589,3.589,0,0,0,2.931,3.51,3.414,3.414,0,0,1-.963.13,3.884,3.884,0,0,1-.687-0.06,3.656,3.656,0,0,0,3.413,2.49,7.428,7.428,0,0,1-4.538,1.53,8.317,8.317,0,0,1-.871-0.05,10.456,10.456,0,0,0,5.6,1.61,10.221,10.221,0,0,0,10.4-10.2c0-.15,0-0.31-0.011-0.46A7.423,7.423,0,0,0,586.353,1632.48Z" transform="translate(-568.531 -1630.81)"/>
</svg>
